<?xml version="1.0" encoding="utf-8"?>
<!-- Generator: Adobe Illustrator 24.1.3, SVG Export Plug-In . SVG Version: 6.00 Build 0)  -->
<svg version="1.1" id="Layer_1" xmlns="http://www.w3.org/2000/svg" xmlns:xlink="http://www.w3.org/1999/xlink" x="0px" y="0px"
	 width="25px" height="25px" viewBox="0 0 25 25" style="enable-background:new 0 0 25 25;" xml:space="preserve">
<style type="text/css">
	.st0{fill:none;stroke:#145A99;stroke-miterlimit:10;}
</style>
<g transform="translate(0.000000,1280.000000) scale(0.100000,-0.100000)">
	<path class="st0" d="M101.9,12751.8c-1-0.3-12.2-6.8-12.8-7.5c-1.5-1.5-1.8-3.7-0.9-5.5c1-1.9,20.6-35.8,21-36.4
		c1-1.3,3.3-2.1,4.9-1.6c0.8,0.2,11.9,6.5,12.8,7.3c1.2,1,1.9,3.2,1.4,4.8c-0.1,0.4-4.9,8.9-10.7,18.9
		c-8.5,14.7-10.6,18.3-11.3,18.9C105.2,12751.9,103.5,12752.3,101.9,12751.8z"/>
	<path class="st0" d="M81.8,12736.2c-3.8-2.3-5.8-3.7-7.8-5.7c-6-5.7-7.6-11.4-6.6-23.2c1.5-16.9,9.8-39.4,22.4-60.3
		c11.8-19.6,25.9-35.8,39-44.6c6.7-4.6,10.9-6.1,16.3-6.1c3.6,0,6.6,0.7,10.9,2.6c2,0.9,6.5,3.3,6.7,3.6
		c0.1,0.1-20.4,35.7-21.5,37.4c-0.1,0.2-0.3,0.1-0.8-0.1c-1.2-0.6-3.3-1.2-4.9-1.4c-5.9-0.7-12.8,2.7-19.2,9.4
		c-8,8.3-14.3,20.5-16.2,31.4c-1.4,8-0.4,14.5,3.1,18.6c0.6,0.7,2.6,2.4,3,2.5c0.1,0.1-3.9,7.2-10.6,18.8
		c-5.9,10.3-10.9,18.8-10.9,18.8C84.6,12737.8,83.3,12737.1,81.8,12736.2z"/>
	<path class="st0" d="M158.5,12654.9c-1-0.1-0.8-0.1-7.4-3.8c-2.9-1.7-5.6-3.3-6-3.7c-1.3-1.2-1.8-3.3-1.3-4.9
		c0.3-0.9,20.7-36.3,21.4-37.2c1.3-1.6,3.8-2.1,5.8-1.1c1.5,0.7,11,6.2,11.7,6.8c1,0.8,1.6,2.2,1.6,3.6c0,0.7-0.1,1.4-0.2,1.7
		c-0.6,1.4-21,36.6-21.6,37.2C161.5,12654.7,160.1,12655.2,158.5,12654.9z"/>
	<path class="st0" d="M134.6,12791.2c27-2.3,52-13.8,71.4-33c20.2-19.9,32.2-45.6,34.5-74.1c0.3-4,0.3-13.5,0-17.5
		c-2.3-27.8-13.7-52.9-33.1-72.7c-19.9-20.2-45.5-32.2-74.1-34.5c-4-0.3-13.5-0.3-17.5,0c-28.6,2.4-54.2,14.3-74.1,34.5
		c-19.4,19.8-30.8,44.7-33.1,72.7c-0.3,4-0.3,13.5,0,17.5c2.4,28.6,14.3,54.2,34.5,74.1c18.1,17.8,41,29,65.8,32.3
		C117.5,12791.7,126.1,12791.9,134.6,12791.2z"/>
</g>
</svg>
