<?xml version="1.0" encoding="utf-8"?>
<svg version="1.1" id="Layer_1" xmlns="http://www.w3.org/2000/svg" xmlns:xlink="http://www.w3.org/1999/xlink" x="0px" y="0px"
	 width="194.4px" height="194.4px" viewBox="0 0 194.4 194.4" style="enable-background:new 0 0 194.4 194.4;" xml:space="preserve"
	>
<style type="text/css">
	.st0{fill:none;stroke:#145a99;stroke-width:12;}
</style>
<g id="Group_11591" transform="translate(6 6)">
	<g id="profile-user" transform="translate(0 0)">
		<path id="Path_23422" class="st0" d="M91.2,0C40.8,0,0,40.8,0,91.2s40.8,91.2,91.2,91.2c50.4,0,91.2-40.8,91.2-91.2
			C182.4,40.8,141.6,0,91.2,0z M91.2,27.3c16.7,0,30.2,13.5,30.2,30.2s-13.5,30.2-30.2,30.2S61.1,74.1,61.1,57.4c0,0,0,0,0,0
			C61.1,40.8,74.6,27.3,91.2,27.3L91.2,27.3z M91.2,158.6c-16,0-31.4-5.7-43.6-16.1c-2.9-2.4-4.5-6-4.5-9.8
			c0-16.8,13.6-30.4,30.4-30.4c0,0,0.1,0,0.1,0h35.1c16.8-0.1,30.4,13.5,30.5,30.2c0,0.1,0,0.1,0,0.2c0,3.8-1.6,7.3-4.5,9.8
			C122.7,152.9,107.2,158.6,91.2,158.6z"/>
	</g>
</g>
</svg>
